<svg class="svg-accessibility icon-svg" version="1.1" xmlns="http://www.w3.org/2000/svg" xmlns:xlink="http://www.w3.org/1999/xlink" x="0px" y="0px" viewBox="0 0 92 91.5" style="enable-background:new 0 0 92 91.5" xml:space="preserve"><path class="svg-accessibility__head" d="M46.1,21.4c2.7,0,4.9,2.2,4.9,4.9s-2.2,4.9-4.9,4.9s-4.9-2.2-4.9-4.9S43.3,21.4,46.1,21.4z"></path><path class="svg-accessibility__body" d="M64.8,38.7l-14.3,2v9l7.7,18.6c0.6,1.4-0.1,3-1.5,3.5c-0.3,0.1-0.7,0.2-1,0.2c-1.1,0-2.1-0.6-2.5-1.7
			l-7.1-17.1L39,70.4c-0.4,1-1.5,1.7-2.5,1.7c-0.3,0-0.7-0.1-1-0.2c-1.4-0.6-2-2.2-1.5-3.5l7.7-18.6v-9l-14.3-2
			c-1.2-0.2-2-1.5-1.8-3c0.2-1.4,1.2-2.4,2.3-2.4c0.1,0,0.2,0,0.3,0l13.8,1.9h8.3L64,33.3c0.1,0,0.2,0,0.3,0c1.1,0,2.1,1,2.3,2.4
			C66.8,37.2,66,38.5,64.8,38.7z"></path><circle class="svg-accessibility__circle" cx="46.1" cy="46.2" r="40.8"></circle></svg>