<?xml version="1.0" standalone="no"?>
<!DOCTYPE svg PUBLIC "-//W3C//DTD SVG 20010904//EN"
 "http://www.w3.org/TR/2001/REC-SVG-20010904/DTD/svg10.dtd">
<svg version="1.0" xmlns="http://www.w3.org/2000/svg"
 width="576.000000pt" height="576.000000pt" viewBox="0 0 576.000000 576.000000"
 preserveAspectRatio="xMidYMid meet">
<metadata>
Created by potrace 1.14, written by Peter Selinger 2001-2017
</metadata>
<g transform="translate(0.000000,576.000000) scale(0.100000,-0.100000)"
fill="#000000" stroke="none">
<path d="M3715 5321 c-51 -32 -81 -71 -160 -216 -130 -236 -197 -314 -370
-430 -159 -106 -286 -140 -489 -132 -223 9 -408 73 -724 251 -467 263 -727
356 -989 356 -412 0 -674 -277 -814 -858 -110 -458 -101 -840 25 -1090 170
-338 566 -448 1151 -322 309 67 770 259 1033 429 272 177 329 332 146 400
-117 44 -155 26 -327 -154 -87 -91 -154 -152 -210 -189 -259 -171 -578 -305
-839 -351 -139 -25 -346 -17 -443 16 -190 64 -314 218 -355 439 -18 92 -15
315 5 445 36 236 114 493 205 675 139 277 335 420 579 420 197 0 403 -79 756
-290 105 -63 228 -131 275 -151 300 -133 625 -153 920 -58 93 31 229 99 251
127 10 14 19 21 19 17 0 -4 -30 -100 -66 -213 -244 -770 -461 -1568 -568
-2097 -93 -459 -128 -747 -129 -1035 0 -272 20 -383 114 -623 51 -132 82 -182
131 -215 83 -55 211 -24 340 81 67 55 108 116 260 382 192 334 316 571 928
1765 320 625 549 1048 698 1295 30 50 127 187 215 305 195 260 266 367 323
483 93 190 80 296 -41 343 -192 73 -438 -189 -761 -811 -108 -209 -221 -450
-395 -847 -78 -178 -184 -416 -235 -531 -51 -114 -184 -433 -295 -710 -427
-1064 -597 -1411 -771 -1572 -308 -286 -406 322 -227 1415 84 511 218 1086
405 1734 137 473 226 730 407 1171 74 180 105 323 75 353 -16 16 -18 15 -53
-7z"/>
<path d="M5204 716 c-114 -37 -160 -107 -120 -184 32 -62 96 -96 203 -107 74
-8 115 13 161 79 41 61 43 111 7 154 -47 56 -171 85 -251 58z"/>
</g>
</svg>
