<svg viewBox="0 0 1555.96 603.49" xmlns="http://www.w3.org/2000/svg" variant="white" class="BrandLogostyles__Extended-velasca__sc-1cqsfc5-0 styles__StyledBrandLogoExtended-velasca__sc-qjgftd-10 cDgDbm cqpsiA"><g fill="#fff"><path d="m520.66 108.57c20.75-27.32 44.27-58.28 38.59-76.11-1.74-5.47-6-9.31-12.64-11.4-39.46-12.39-88.6 100.75-124.52 183.37-7.21 16.59-13.44 30.92-18.7 42.1-7.25 15.42-16.37 38.33-26.93 64.87-24.73 62.16-55.51 139.53-77.59 157.24-5.56 4.46-10.13 5.55-13.6 3.22-19.21-12.87-19.24-122.8 40.83-326.91 17.28-58.71 28.26-84.02 34.16-97.61 1.68-3.87 3.01-6.93 4.01-9.64 5.68-14.48 11.19-32.61 5.24-36.75-3.81-2.65-8.56.75-12.31 4.09-3.79 2.63-7.46 9.31-13.07 19.88-4.59 8.65-9.79 18.46-14.84 23.75-24.21 25.37-57.54 47.02-121.04 15.25-4.29-2.15-9.72-5.27-16.01-8.9-32.46-18.68-86.78-49.96-130.26-31.28-25.53 10.97-43.65 37.9-53.82 80.06l-3.36 15.84c-11.83 62.63-1.73 104.2 30.01 123.57 58.84 35.9 174.18-17.67 208.09-44.09 4-3.11 16.92-14.12 15.34-24.89-.8-5.43-4.96-9.65-12.37-12.53-15.27-5.94-22.68 2.41-32.04 12.97-6.34 7.15-14.23 16.06-27.05 24.04-55.04 34.26-108.21 43.68-135.46 24-21.94-15.84-27.17-50.57-15.12-100.43 10.6-43.91 27.44-70.94 50.05-80.35 31.82-13.24 69.26 9.46 96.61 26.04 6.97 4.22 12.99 7.87 18.15 10.46 36.61 18.32 68.4 16.87 88.62 12.42 16.48-3.62 28-9.64 32.98-12.6-96.29 301.73-74.68 355.75-63 384.92 1.03 2.57 2 4.99 2.77 7.32 4.43 13.25 11.59 20.53 21.29 21.63.84.1 1.67.14 2.51.14 15.8 0 32.03-16.06 36.41-23.25 27.4-44.97 59.72-108.23 90.97-169.41 29.94-58.6 60.89-119.19 87.52-163.73 4.33-7.24 11.73-16.99 19.57-27.31z"></path><path d="m1554.29 417c1.78-6.33 3.21-13.93-1.63-16.5-5.21-2.75-12.6 4.14-13.84 5.62-7.8 9.27-15.04 19.08-22.04 28.57-18.41 24.95-34.29 46.52-47.49 39.95-9.64-4.8-15.93-42.87-4.91-77.21 3.86-12.04 13.84-32.69 23.49-52.66 7.23-14.97 14.07-29.11 17.63-38.26 8.39-21.55 9.66-24.05 11.77-28.19 1.64-3.21 3.85-7.54 10.18-22.31 7.04-12.42 4.37-17.72.87-19.98-7.75-5.01-25.58 4.12-35.96 18.43l.25.18-.64.52c-.96 2.48-1.88 4.83-2.74 7.05-.48-2.3-1.05-4.44-1.72-6.41-3.83-11.33-10.15-19.22-18.81-23.45-10.9-5.33-25.6-4.83-43.68 1.48-37.72 13.15-73.63 42.95-106.71 88.57-7.12 9.79-13.26 19.34-18.51 28.67-8.47 9.32-18.19 19.92-29.45 32.09-44.61 48.23-75.51 78-101.42 87.46-5.56 2.04-10.7 1.99-15.26-.16-5.38-2.53-10.04-8.14-12.47-15-8.03-22.67 8.18-55 37.54-110.19 26.64-50.08 50.9-78.56 74.18-87.07 8.75-3.21 21.87.21 26.48 6.88 2.09 3.03 8.86 7.65 14.31 5.63 2.92-1.08 6.21-4.27 5.28-13.4-.7-6.9-5.13-13.24-12.47-17.84-12.65-7.92-30.99-9-47.9-2.83-34.55 12.62-66.58 42.48-95.19 88.73-1.97 3.14-3.85 6.26-5.64 9.35l-57.76 78.79c8.88-29.04 10.64-71.96-19.67-125.74-.66-1.16-1.41-2.37-2.19-3.62-3.65-5.84-7.42-11.87-3.97-18.42 5.64-10.69 7.83-14.61 8.6-15.86.33-.25.65-.57.93-.99 2.75-4.09 1.89-8.81-2.15-11.75-5.79-4.22-16.08-3.53-22.15 4.2-3.21 4.1-6.06 9.94-10.79 19.61-8.29 16.97-22.16 45.37-53.28 96.13-5.08 8.28-10.4 17.51-16.04 27.29-25.14 43.58-56.37 97.83-78.8 86.69-9.41-4.68-19.36-39.01-8.24-73.67 3.86-12.04 13.85-32.69 23.5-52.67 7.23-14.97 14.07-29.11 17.63-38.25 8.39-21.56 9.66-24.05 11.77-28.19 1.64-3.21 3.85-7.54 10.17-22.3 7.04-12.42 4.37-17.73.87-19.99-7.76-5.01-25.58 4.12-35.96 18.43l.25.18-.64.52-2.75 7.05c-.48-2.3-1.05-4.44-1.72-6.41-3.83-11.33-10.16-19.22-18.82-23.45-10.9-5.33-25.6-4.83-43.68 1.48-37.72 13.15-73.62 42.95-106.7 88.57-3.9 5.37-7.47 10.65-10.81 15.88-8.91 11.58-19.3 25.77-30.42 42.13-.54.84-54.51 83.53-85.4 88.76-3.82.65-6.95-.02-9.55-2.04-10.86-8.43-18-28.43-5.49-59.32 18.08-44.64 174.05-275.86 175.63-278.19l4.1-6.07-1.1.18c2.11-5.11 2.3-9.13.56-12.17-1.2-2.1-3.85-4.6-9.73-4.62h-.07c-12.65 0-34.71 11.69-43.71 25.66l-.15.03-.73 1.35c-.37.69-37.41 69.31-59.45 115.91-7.09 15-19.55 39-32.07 62.68-45.09 81.85-101.34 151.77-128.02 158.31-21.69 5.3-37.41-10.08-41.02-19.5-7.21-18.79-.31-37.44 24.47-66.36 11.29-11.51 28.07-25.57 44.29-39.17 15.32-12.85 31.17-26.13 42.19-37.15 23.65-25.82 33.21-39.26 25.43-59.54-3.1-8.09-7.85-13.59-14.11-16.34-7.28-3.2-16.59-2.61-27.65 1.75-33.37 13.17-61.66 41.94-89.06 90.53-28.57 50.83-36.44 93.85-23.4 127.87 6.75 17.61 15.75 28.68 27.5 33.85 5.21 2.29 10.97 3.44 17.32 3.44 8.91 0 19.02-2.26 30.49-6.79 16.32-6.44 35.41-24.86 58.76-57.21-4.19 23.26 1.09 37.58 7.62 46.15 8.77 11.5 15.4 17.24 25.58 17.24 4.54 0 9.78-1.14 16.22-3.42 16.7-5.9 36.1-26.79 71.64-70.55-.97 13.16.5 25.67 4.49 37.46 5.72 16.95 14.48 28.4 26.04 34.05 11.59 5.66 26.06 5.53 43.02-.38 29.24-10.2 59.52-38.39 90.11-83.86-2.74 27.49-2.93 58.74 7.5 72.76 7.98 10.74 17.18 16.12 27.49 16.12 6.15 0 12.69-1.91 19.59-5.74 34.83-19.29 112.02-156.39 129.53-188.08 2.95 12.73 8.96 40.96 11.9 70.89 5.15 52.42-1.26 86.15-18.53 97.56-7.11 4.7-20.88 4.12-30.79 1.12-7.14-2.16-10.53-4.96-11.26-6.69l-1.68-1.07c-2.24-6.14-7.81-11.12-12.87-13.06-4.16-1.6-7.99-1.2-10.51 1.08-3.26 2.94-3.87 8.28-1.81 15.87l1.36-.37-.39.57c3.53 10.45 10.42 18.43 19.91 23.08 13.59 6.64 32.17 6.44 52.3-.58 34.72-12.11 55.05-40.74 63.73-52.96 1.37-1.93 2.46-3.46 3.28-4.46l12.3-16.4c-.92 13.84.69 26.82 4.95 38.86 9.39 26.49 26.33 40.45 48.5 40.44 4.69 0 9.63-.63 14.77-1.89 20.9-5.15 56.29-35.81 97.1-84.15 1.4-1.66 2.74-3.26 4.11-4.89-3.8 18.64-3 36.06 2.44 52.17 5.72 16.95 14.49 28.4 26.05 34.05 11.58 5.66 26.06 5.54 43.02-.38 29.24-10.2 59.52-38.39 90.11-83.86-2.74 27.49-2.93 58.74 7.5 72.76 7.98 10.74 17.18 16.12 27.49 16.12 6.15 0 12.69-1.91 19.59-5.74 14.04-7.77 54.05-55.57 57.87-69.11zm-130.28-52.1c-15.33 25.23-64.76 102.57-94.3 102.56-2.27 0-4.43-.46-6.44-1.43-8.01-3.88-14.64-13.89-17.75-26.77-3.43-14.26-7.15-53.02 32.17-104.96 44.45-58.7 82.59-82.44 105.24-82.44 5 0 9.25 1.16 12.65 3.36 18.35 11.89 9.79 41.62-31.58 109.69zm-592.1 0c-44.06 72.52-81.73 110.32-100.74 101.13-8.01-3.88-14.64-13.89-17.75-26.77-3.43-14.26-7.15-53.02 32.17-104.96 44.45-58.7 82.6-82.44 105.25-82.44 5 0 9.25 1.16 12.65 3.36 18.34 11.89 9.78 41.62-31.58 109.69zm-267.2-113.87c1.64.72 3.03 2.52 4.11 5.36 6.29 16.39-35.41 54.4-81.32 93.26 19.27-55.63 49.91-89.72 71.39-98.19 1.4-.55 2.66-.83 3.76-.83.77 0 1.45.13 2.06.4zm497.39-6.43s0-.03.01-.05c.09.04.17.03.26.08z"></path><path d="m450.42 553.75c.07-.64.71-1.13 1.27-1.13h1.13c.35 0 .99.28 1.2.71l16.39 30.52h.14l16.39-30.52c.21-.42.85-.71 1.2-.71h1.13c.57 0 1.2.49 1.27 1.13l7.98 47.47c.14.92-.49 1.55-1.34 1.55h-8.34c-.64 0-1.27-.56-1.34-1.13l-3.18-21.83h-.14l-11.87 22.89c-.21.42-.85.78-1.2.78h-1.27c-.42 0-.99-.35-1.2-.78l-11.94-22.89h-.14l-3.11 21.83c-.07.57-.64 1.13-1.34 1.13h-8.34c-.85 0-1.48-.64-1.34-1.55l7.98-47.47z"></path><path d="m515.33 600.94 22.11-47.54c.21-.42.71-.78 1.2-.78h.71c.49 0 .99.35 1.2.78l22.11 47.54c.42.92-.14 1.84-1.2 1.84h-7.84c-1.27 0-1.84-.42-2.47-1.77l-2.54-5.58h-19.22l-2.54 5.65c-.35.85-1.13 1.7-2.54 1.7h-7.77c-1.06 0-1.63-.92-1.2-1.84zm29.04-15.12-5.37-11.66h-.07l-5.3 11.66z"></path><path d="m582.58 554.67c0-.71.57-1.34 1.27-1.34h17.24c13.63 0 24.8 11.09 24.8 24.66s-11.16 24.8-24.8 24.8h-17.24c-.71 0-1.27-.64-1.27-1.34v-46.77zm17.8 37.65c7.98 0 13.78-6.29 13.78-14.34s-5.79-14.27-13.78-14.27h-6.78v28.61z"></path><path d="m648.63 554.67c0-.71.57-1.34 1.34-1.34h29.25c.78 0 1.34.64 1.34 1.34v7.7c0 .71-.57 1.34-1.34 1.34h-19.57v8.76h16.11c.71 0 1.34.64 1.34 1.34v7.7c0 .78-.64 1.34-1.34 1.34h-16.11v9.54h19.57c.78 0 1.34.64 1.34 1.34v7.7c0 .71-.57 1.34-1.34 1.34h-29.25c-.78 0-1.34-.64-1.34-1.34v-46.77z"></path><path d="m733.89 554.67c0-.71.64-1.34 1.34-1.34h8.48c.71 0 1.34.64 1.34 1.34v46.77c0 .71-.64 1.34-1.34 1.34h-8.48c-.71 0-1.34-.64-1.34-1.34z"></path><path d="m771.25 553.89c0-.71.64-1.27 1.34-1.27h1.77l28.19 27.13h.07v-25.08c0-.71.57-1.34 1.34-1.34h8.48c.71 0 1.34.64 1.34 1.34v47.54c0 .71-.64 1.27-1.34 1.27h-1.13c-.21 0-.78-.21-.92-.35l-27.9-28.05h-.07v26.35c0 .71-.57 1.34-1.34 1.34h-8.41c-.71 0-1.34-.64-1.34-1.34l-.07-47.54z"></path><path d="m869.79 554.67c0-.71.64-1.34 1.34-1.34h8.48c.71 0 1.34.64 1.34 1.34v46.77c0 .71-.64 1.34-1.34 1.34h-8.48c-.71 0-1.34-.64-1.34-1.34z"></path><path d="m913.59 563.71h-10.1c-.78 0-1.34-.64-1.34-1.34v-7.7c0-.71.56-1.34 1.34-1.34h31.37c.78 0 1.34.64 1.34 1.34v7.7c0 .71-.56 1.34-1.34 1.34h-10.1v37.72c0 .71-.64 1.34-1.34 1.34h-8.48c-.71 0-1.34-.64-1.34-1.34v-37.72z"></path><path d="m948.48 600.94 22.11-47.54c.21-.42.71-.78 1.2-.78h.71c.49 0 .99.35 1.2.78l22.11 47.54c.42.92-.14 1.84-1.2 1.84h-7.84c-1.27 0-1.84-.42-2.47-1.77l-2.54-5.58h-19.22l-2.54 5.65c-.35.85-1.13 1.7-2.54 1.7h-7.77c-1.06 0-1.63-.92-1.2-1.84zm29.03-15.12-5.37-11.66h-.07l-5.3 11.66z"></path><path d="m1015.73 554.67c0-.71.57-1.34 1.34-1.34h8.41c.71 0 1.34.64 1.34 1.34v37.72h16.81c.78 0 1.34.64 1.34 1.34v7.7c0 .71-.57 1.34-1.34 1.34h-26.56c-.78 0-1.34-.64-1.34-1.34v-46.77z"></path><path d="m1071.67 578.97-15.61-23.59c-.57-.92 0-2.05 1.13-2.05h9.18c.57 0 .92.35 1.13.64l9.82 14.48 9.82-14.48c.21-.28.49-.64 1.13-.64h9.18c1.13 0 1.69 1.13 1.13 2.05l-15.82 23.52v22.54c0 .71-.64 1.34-1.34 1.34h-8.41c-.78 0-1.34-.64-1.34-1.34z"></path></g></svg>